{"title":"The Burbs (1989) Tom Hanks (Optional MULTISUBS)","uid":4856098,"size":734534405,"categoryP":"video","categoryS":"movies","magnet":"?xt=urn:btih:0d612d5b0108a5ad5f6b14b85d48375e27b6e368&amp;dn=The+Burbs+%281989%29+Tom+Hanks+%28Optional+MULTISUBS%29&amp;tr=udp%3A%2F%2Ftracker.openbittorrent.com%3A80&amp;tr=udp%3A%2F%2Fopen.demonii.com%3A1337&amp;tr=udp%3A%2F%2Ftracker.coppersurfer.tk%3A6969&amp;tr=udp%3A%2F%2Fexodus.desync.com%3A6969","seeders":1,"leechers":0,"uploader":"Kuthumi","files":-1,"time":1240068901,"description":" &lt;a href=&quot;http://www.imdb.com/title/tt0096734/&quot; rel=&quot;nofollow&quot; target=&quot;_NEW&quot;&gt;http://www.imdb.com/title/tt0096734/&lt;/a&gt;\n\na.k.a.\nThe 'burbs (1989) \nThe burbs (1989\nthe burbs\nNabokrigen (DK)\nPiru naapurissa (FIN)\nNabohysteri (N)\nEn djÃƒÂ¤vul till granne (S) En djavul till granne\n\nOptional subtitles in separate idx/sub files: (Work in Windows Media Player etc. - see enclosed Note): Danish, Dutch (srt format), English for the hearing impaired, Finnish, Italian, Norwegian, Spanish, Swedish.\n\nClassic crazy comedy with Tom Hanks and his eccentric neighbours.\n\nWidescreen DVDrip XviD 2-pass 720x368, great stereo sound AC3.\nRuns well in both my standalone DivX players.\n\nMediaInfo analysis:\nFormat/Info                      : Audio Video Interleave\nFile size                        : 694 MiB\nDuration                         : 1h 37mn\nOveral bit rate                  : 998 Kbps\n\nVideo\nFormat                           : MPEG-4 Visual\nFormat profile                   : Streaming Video@L1\nFormat settings, BVOP            : Yes\nFormat settings, QPel            : No\nFormat settings, GMC             : No warppoints\nFormat settings, Matrix          : Default\nMuxing mode                      : Packet Bitstream\nCodec ID                         : XVID\nCodec ID/Hint                    : XviD\nDuration                         : 1h 37mn\nBit rate                         : 861 Kbps\nWidth                            : 720 pixels\nHeight                           : 368 pixels\nDisplay aspect ratio             : 1.957\nFrame rate                       : 25.000 fps\nResolution                       : 8 bits\nColorimetry                      : 4:2:0\nScan type                        : Progressive\nBits/(Pixel*Frame)               : 0.130\nStream size                      : 598 MiB\nWriting library                  : XviD 1.2.0.dev47 (UTC 2006-11-01)\n\nAudio\nFormat                           : MPEG Audio\nFormat version                   : Version 1\nFormat profile                   : Layer 3\nCodec ID                         : 55\nCodec ID/Hint                    : MP3\nDuration                         : 1h 37mn\nBit rate mode                    : Constant\nBit rate                         : 128 Kbps\nMinimum bit rate                 : 128 Kbps\nChannel(s)                       : 2 channels\nSampling rate                    : 48.0 KHz\nResolution                       : 16 bits\nStream size                      : 89.0 MiB\nWriting library                  : LAME3.97 \nEncoding settings                : CBR\n\nSource: PAL native (note that PAL/NTSC will give no problems for avi files).\nThanks to SirWall for uploading the DVD.","torrent":{"xt":"urn:btih:0d612d5b0108a5ad5f6b14b85d48375e27b6e368","amp;dn":"The+Burbs+%281989%29+Tom+Hanks+%28Optional+MULTISUBS%29","amp;tr":["udp%3A%2F%2Ftracker.openbittorrent.com%3A80","udp%3A%2F%2Fopen.demonii.com%3A1337","udp%3A%2F%2Ftracker.coppersurfer.tk%3A6969","udp%3A%2F%2Fexodus.desync.com%3A6969"],"infoHash":"0d612d5b0108a5ad5f6b14b85d48375e27b6e368","infoHashBuffer":{"type":"Buffer","data":[13,97,45,91,1,8,165,173,95,107,20,184,93,72,55,94,39,182,227,104]},"announce":[],"urlList":[]}}